<svg id="Capa_1" data-name="Capa 1" xmlns="http://www.w3.org/2000/svg" xmlns:xlink="http://www.w3.org/1999/xlink" viewBox="0 0 64 64"><defs><style>.cls-1{fill:#595959;}.cls-2{fill:url(#Degradado_sin_nombre_13);}.cls-3{fill:url(#Degradado_sin_nombre_13-2);}.cls-4{fill:url(#Degradado_sin_nombre_13-3);}.cls-5{fill:url(#Degradado_sin_nombre_13-4);}.cls-6{fill:url(#Degradado_sin_nombre_4);}</style><linearGradient id="Degradado_sin_nombre_13" x1="48.71" y1="21.89" x2="48.71" y2="59.33" gradientUnits="userSpaceOnUse"><stop offset="0" stop-color="#0090ff"/><stop offset="1" stop-color="#0063ff"/></linearGradient><linearGradient id="Degradado_sin_nombre_13-2" x1="43.88" y1="21.89" x2="43.88" y2="59.33" xlink:href="#Degradado_sin_nombre_13"/><linearGradient id="Degradado_sin_nombre_13-3" x1="31.11" y1="21.89" x2="31.11" y2="59.33" xlink:href="#Degradado_sin_nombre_13"/><linearGradient id="Degradado_sin_nombre_13-4" x1="46.46" y1="21.89" x2="46.46" y2="59.33" xlink:href="#Degradado_sin_nombre_13"/><linearGradient id="Degradado_sin_nombre_4" x1="18.95" y1="21.6" x2="18.95" y2="58.28" gradientUnits="userSpaceOnUse"><stop offset="0" stop-color="#ff9000"/><stop offset="1" stop-color="#ff6300"/></linearGradient></defs><title>Mesa de trabajo 2 copia</title><path class="cls-1" d="M35.91,10.09A2.84,2.84,0,0,0,35.07,9l0-.32a5.15,5.15,0,0,0-.32-2.23A3.83,3.83,0,0,0,33.4,4.71a4.33,4.33,0,0,1,1,1.83,5.44,5.44,0,0,1,.08,2.05A10,10,0,0,1,33,12.45a7.87,7.87,0,0,0-.93,2.07,7.38,7.38,0,0,0-.25,2.24v0A6.29,6.29,0,0,1,31.2,14a5.54,5.54,0,0,1,.88-2.82,6.58,6.58,0,0,0,1-3,3.78,3.78,0,0,0-.23-1.6,2.64,2.64,0,0,0-1-1.24,3,3,0,0,1,.75,1.32,3.88,3.88,0,0,1,.07,1.48,6.18,6.18,0,0,1-.39,1.46,6.49,6.49,0,0,1-.68,1.34A5.28,5.28,0,0,0,30.8,14a5.08,5.08,0,0,0,1.05,2.87,7.06,7.06,0,0,0,1.55,4,8.68,8.68,0,0,1-1-4.09,7.64,7.64,0,0,1,1.23-3.89A9.17,9.17,0,0,0,35.06,9a3.05,3.05,0,0,1,.61,1.15,3.75,3.75,0,0,1,.06,1.49,6.18,6.18,0,0,1-.39,1.46,6.75,6.75,0,0,1-.68,1.34,5.43,5.43,0,0,0-.85,3.11,5.12,5.12,0,0,0,1.11,2.95,6.24,6.24,0,0,1-.71-3,5.52,5.52,0,0,1,.89-2.82,6.45,6.45,0,0,0,1-3A3.68,3.68,0,0,0,35.91,10.09Z"/><path class="cls-2" d="M48.62,56.82c-.37.28-.41.54-.1.87,0,.05,0,.17.13.18s.15-.07.2-.14a1.17,1.17,0,0,0,0-1.41C48.81,56.5,48.76,56.72,48.62,56.82Z"/><path class="cls-3" d="M44.22,58.27c-.14-.06-.12.09-.15.16a.55.55,0,0,1-.39.32c-.2.06-.25.22-.33.38s0,.15.09.16a.29.29,0,0,0,.19-.08c.13-.11.26-.26.44-.26s.3-.24.35-.41S44.33,58.32,44.22,58.27Z"/><path class="cls-4" d="M31,56.76c-.24.25-.17.49,0,.75,0,.06.11.13,0,.21s-.14,0-.2,0a3.22,3.22,0,0,1-.36-.24c-.11-.09-.18-.07-.25,0s0,.16.06.2a.9.9,0,0,1,.44.6c0,.21.17.3.41.19a.61.61,0,0,0,.4-.71.4.4,0,0,1,.14-.36l.43-.41c0-.1-.12-.1-.18-.16s-.18-.31,0-.46.25-.29,0-.45a.47.47,0,0,1-.2-.25c-.21.29-.42.58-.66.86A.29.29,0,0,1,31,56.76Z"/><path class="cls-5" d="M56.28,22H39.77a1,1,0,0,0-1,1v7a1,1,0,0,0,1,1H54.1a1,1,0,0,1,1,1v7.85A11.71,11.71,0,0,1,43.36,51.49H38.81a1,1,0,0,1-1-1V32.66a1,1,0,0,0-1-1h-7a1,1,0,0,0-1,1v3.76a1.69,1.69,0,0,0,.59,1.29,9.58,9.58,0,0,1,.8.76A13.32,13.32,0,0,1,32,55.13a.72.72,0,0,0,.3.2,2.43,2.43,0,0,1,1.1.68.82.82,0,0,1,.19,1c-.11.22,0,.35.25.34a1.53,1.53,0,0,0,1.5-1,.77.77,0,0,1,.53-.46.8.8,0,0,0,.53-1.16c0-.08-.13-.16,0-.23s.18,0,.25.09a.64.64,0,0,1,.23.64c-.06.38,0,.78-.35,1.08-.13.12-.08.33-.06.5a1,1,0,0,1-.12.7.48.48,0,0,0-.05.17c0,.06,0,.12.1.12s.09-.06.07-.12-.05-.17,0-.21c.48-.27.75-.81,1.28-1,.09,0,.16-.1.24,0s0,.16,0,.23a.83.83,0,0,1-.33.47c-.19.12-.24.27-.08.42a.64.64,0,0,1,.19.45c0,.26.14.27.32.18a.83.83,0,0,0,.21-.16.5.5,0,0,1,.42-.16.46.46,0,0,0,.55-.51.91.91,0,0,1,.47-.95.75.75,0,0,0,.35-.67c0-.09,0-.19.1-.22a.2.2,0,0,1,.2.09c.48.59.73.93.22,1.62-.16.24-.1.42.17.42a.69.69,0,0,1,.71.57c.09.28.32.38.51.23s.13-.18,0-.22a.52.52,0,0,1-.44-.51c0-.08-.08-.13-.13-.18a.61.61,0,0,1-.11-.92.63.63,0,0,0,.07-.5c0-.06,0-.13,0-.16s.11,0,.15.05a1,1,0,0,1,.23.3c0,.08.07.17.19.13a.2.2,0,0,0,.15-.22.85.85,0,0,0,0-.22c0-.08-.11-.17,0-.23s.15,0,.2.09.23.26.33.4a.4.4,0,0,1-.05.6c-.15.13-.15.22,0,.34a.66.66,0,0,1,.19.44c0,.09,0,.19.13.2s.14-.05.19-.12a1.28,1.28,0,0,0-.32-1.8.52.52,0,0,1-.28-.5,2.75,2.75,0,0,1,0-.7c0-.07.06-.16.15-.15s.08.11.07.18a.53.53,0,0,0,.39.58,2.42,2.42,0,0,1,1.09.66.83.83,0,0,1,.21,1c-.1.19,0,.32.22.32a1.47,1.47,0,0,0,1.51-1,.92.92,0,0,1,.57-.5.8.8,0,0,0,.52-1.14c0-.08-.15-.18,0-.25s.18,0,.25.11a.64.64,0,0,1,.22.6,5.66,5.66,0,0,0-.16,1,2,2,0,0,1-.12,1c-.07.11.11.19.25.32a.42.42,0,0,1,.16-.49,1.84,1.84,0,0,1,1.08-.59.55.55,0,0,0-.35-.4.47.47,0,0,1-.29-.49,2.17,2.17,0,0,1,0-.72c0-.07.06-.16.16-.14s0,.11,0,.17a.52.52,0,0,0,.39.58,3.44,3.44,0,0,0,.9.32.35.35,0,0,1,.3.31c0,.17,0,.42.22.44s.39-.19.45-.37c.13-.34.24-.71-.09-1a.26.26,0,0,1,0-.39c.1-.13.2-.26.39-.21s.22.2.24.36,0,.07,0,.09c-.29.43,0,.75.22,1.07a1,1,0,0,1,.16.82c.19-.07.21-.21.26-.34a.81.81,0,0,1,.58-.55A.82.82,0,0,0,53,54.69c0-.08-.16-.17,0-.25s.17.06.24.12a.65.65,0,0,1,.15.82.64.64,0,0,0,0,.47c0,.06,0,.18,0,.24a.5.5,0,0,1-.12.74c-.08.07-.05.13,0,.19s.18.09.25,0a3.48,3.48,0,0,1,.83-.59c.07-.05.15-.1.23,0s0,.14,0,.2a1.23,1.23,0,0,1-.4.53c-.12.09-.15.19-.09.29A20.64,20.64,0,0,0,64,39.78v-10A7.73,7.73,0,0,0,56.28,22ZM34.55,55.52s0,.08-.11.07a.09.09,0,0,1-.08-.1.88.88,0,0,0-.27-.5.26.26,0,0,1,0-.39c.1-.12.2-.25.39-.2s.22.2.24.4A1.5,1.5,0,0,0,34.55,55.52Zm4.34,1.16a.14.14,0,0,1-.19,0,.19.19,0,0,1,0-.27.52.52,0,0,0,.13-.53.14.14,0,0,1,.07-.17.3.3,0,0,1,.27.07.36.36,0,0,1,.16.31A1.3,1.3,0,0,1,38.89,56.68Zm2.76-1.94a.34.34,0,0,0-.26.26,3.13,3.13,0,0,1-.19.51c0,.13-.07.29-.26.25s-.16-.19-.17-.31a1.45,1.45,0,0,1,.81-.93c.08,0,.17,0,.2.08S41.72,54.72,41.65,54.74Zm3.81.14c-.05.13-.15.25-.11.4s.06.22-.08.25-.11-.12-.13-.19a.78.78,0,0,0-.22-.37.27.27,0,0,1,0-.45c.11-.12.24-.26.42-.15A.38.38,0,0,1,45.46,54.88Zm7.08-.23c-.43.09-.35.52-.53.77v0c0,.13-.07.29-.26.25s-.16-.19-.18-.31a1.38,1.38,0,0,1,.84-.93c.07,0,.14,0,.17.07S52.59,54.64,52.54,54.65Z"/><path class="cls-6" d="M9.22,56.68a6.29,6.29,0,0,1,.64-.41.15.15,0,0,1,.19,0c.07.07,0,.13,0,.18a.67.67,0,0,0-.12.29c-.12.52-.12.52.4.63a.62.62,0,0,1,.3.18c.1.09.19.2.35.12s.33-.17.31-.35a1.24,1.24,0,0,1,.64-1.24.33.33,0,0,0,0-.57,1.57,1.57,0,0,1,0-1.15s.06-.11.13-.08.06.09.05.14a.52.52,0,0,0,.21.52.54.54,0,0,0,.71,0,1.92,1.92,0,0,1,.53-.45c.09,0,.23-.09.28,0s-.09.13-.17.17a.68.68,0,0,0-.16,1,1.74,1.74,0,0,1,.35.5c0,.08,0,.18.17.15a.2.2,0,0,0,.15-.23,2,2,0,0,0-.08-.31c0-.09,0-.16.11-.13a1.28,1.28,0,0,1,.57.72.56.56,0,0,1-.21.43s-.1.08-.07.14.12.06.18,0a1.34,1.34,0,0,0,.81-.75,1,1,0,0,1,.64-.62.79.79,0,0,0,.5-1.11c0-.09-.17-.19,0-.28s.19.07.26.14a.62.62,0,0,1,.2.58c-.06.39,0,.81-.36,1.12-.13.12-.08.34-.05.51a1.05,1.05,0,0,1-.11.65.7.7,0,0,0-.06.19.09.09,0,0,0,.09.12c.08,0,.1-.05.08-.11s-.05-.17,0-.21c.47-.28.74-.81,1.28-1,.08,0,.15-.1.24,0s0,.15,0,.23a.83.83,0,0,1-.33.47c-.22.13-.23.28-.07.44a.67.67,0,0,1,.18.42c0,.24.13.3.34.17a.78.78,0,0,0,.2-.16.4.4,0,0,1,.25-.14c.21,0,.44.07.51-.24s.24-.33.21-.56a.57.57,0,0,1,.32-.55.9.9,0,0,0,.49-.83c0-.22.13-.21.27-.11a1.21,1.21,0,0,1,.34,1.61c-.14.23,0,.42.07.62s.11.13,0,.21-.11,0-.18,0c0,.21.08.42.13.62s.16.21.28.06a1.24,1.24,0,0,1,.57-.47c.06,0,.12,0,.06-.13-.26-.33-.06-.55.18-.76l.15-.14c.13-.08.16-.14,0-.24s-.27-.28-.09-.48.07-.14,0-.19c-.61-.29-.38-.81-.36-1.27l.05-.15a.42.42,0,0,0-.21.34c0,.12-.1.23-.15.35s-.06.3-.24.27-.2-.23-.19-.38a1.46,1.46,0,0,1,.81-.86c.15,0,.23,0,.19.21-.11.55,0,.66.5.88a2.26,2.26,0,0,1,1,.7.79.79,0,0,1,.14.89c-.11.22,0,.35.22.34a1.44,1.44,0,0,0,1.28-.57,1.87,1.87,0,0,1,1.15-1c.24-.07.29-.66.15-1,0-.07-.12-.16,0-.23s.18,0,.24.09a.63.63,0,0,1,.24.62,1.86,1.86,0,0,1-.28,1,.79.79,0,0,0-.14.54,1,1,0,0,1-.11.73.34.34,0,0,0-.05.17c0,.06,0,.12.1.12s.09-.06.07-.12-.05-.17,0-.21c.47-.26.72-.8,1.26-1,.09,0,.16-.13.26-.05s0,.16-.06.24a.92.92,0,0,1-.36.48.23.23,0,0,0,0,.4.58.58,0,0,1,.18.44c0,.16.05.22.13.23A12.49,12.49,0,0,0,29.21,57a.94.94,0,0,1,.5-.73.76.76,0,0,0,.32-.65c0-.08,0-.17.07-.21a.2.2,0,0,1,.23.08l.12.15.3-.38a1,1,0,0,1,.38-.55A12.36,12.36,0,0,0,29.6,39.16a12.93,12.93,0,0,0-9.14-3.85H10.68a1.75,1.75,0,0,1-1.75-1.75V31.93a1,1,0,0,1,1-1h27a1,1,0,0,0,1-1V23a1,1,0,0,0-1-1H7.72A7.73,7.73,0,0,0,0,29.76v3.8c0,.22,0,.44,0,.65s0,.13,0,.2,0,.3,0,.46l0,.19a4.51,4.51,0,0,0,.09.53s0,.07,0,.1c0,.2.09.41.15.61a1.94,1.94,0,0,0,0,.2c0,.14.09.29.14.44l0,.15.17.45a.69.69,0,0,1,0,.13c.08.19.17.38.26.56l.06.13.22.42a10.74,10.74,0,0,0,8.58,5.44l.74,0h9.78a3.89,3.89,0,0,1,2.76,1.18,3.47,3.47,0,0,1,1,2.52,3.64,3.64,0,0,1-3.62,3.55c-4,0-7.6-1.8-9.39-4.69-.16-.26-.31-.51-.45-.76a1.79,1.79,0,0,0-1.35-.87A11.72,11.72,0,0,1,.28,38.86,4.49,4.49,0,0,1,0,38v.88A21.14,21.14,0,0,0,3.66,51.51,18,18,0,0,0,9,56.93,1.27,1.27,0,0,1,9.22,56.68Zm19.43-.37c.06-.1.18-.17.13-.3s-.1-.29.07-.37.2,0,.28.09a.32.32,0,0,1,.08.43c-.08.13-.18.25-.27.37s-.15.17-.27.09A.2.2,0,0,1,28.65,56.31ZM24,54.55c.11-.13.22-.27.41-.2s.21.22.23.41a1.23,1.23,0,0,0-.15.69s-.05.09-.11.08-.08-.06-.09-.12a.85.85,0,0,0-.26-.47A.27.27,0,0,1,24,54.55ZM18.8,56.2a1.53,1.53,0,0,0,.16-.7c0-.18.19-.11.3,0a.39.39,0,0,1,.18.31,1.25,1.25,0,0,1-.42.64C18.85,56.45,18.74,56.32,18.8,56.2Zm-4.6-1.88c.11-.13.22-.27.41-.2s.22.2.24.39a1.34,1.34,0,0,0-.15.7s0,.08-.09.09-.1,0-.11-.11a.86.86,0,0,0-.27-.49A.3.3,0,0,1,14.2,54.32Zm-3.61,2a.45.45,0,0,0,.11-.4c0-.14-.06-.27.12-.34a.32.32,0,0,1,.37.07.31.31,0,0,1,.11.39,1.42,1.42,0,0,1-.2.41.59.59,0,0,0,0,.75c.05.06.12.13.05.2s-.13,0-.2,0c-.25-.14-.51-.27-.46-.61A.58.58,0,0,1,10.59,56.34Z"/></svg>